<mxfile host="app.diagrams.net" modified="2024-02-14T19:54:57.555Z" agent="Mozilla/5.0 (Windows NT 10.0; Win64; x64) AppleWebKit/537.36 (KHTML, like Gecko) Chrome/120.0.0.0 Safari/537.36 OPR/106.0.0.0" etag="XA1vj3BrH7zCwaPvFLFF" version="23.1.4" type="device">
  <diagram id="R2lEEEUBdFMjLlhIrx00" name="Page-1">
    <mxGraphModel dx="5863" dy="3170" grid="1" gridSize="10" guides="1" tooltips="1" connect="1" arrows="1" fold="1" page="1" pageScale="1" pageWidth="850" pageHeight="1100" math="0" shadow="0" extFonts="Permanent Marker^https://fonts.googleapis.com/css?family=Permanent+Marker">
      <root>
        <mxCell id="0" />
        <mxCell id="1" parent="0" />
        <mxCell id="2F_DHolSGNnzSSAKhQXL-1" value="productos" style="rounded=0;whiteSpace=wrap;html=1;" parent="1" vertex="1">
          <mxGeometry x="1410" y="1270" width="120" height="60" as="geometry" />
        </mxCell>
        <mxCell id="2F_DHolSGNnzSSAKhQXL-2" value="pedidos" style="rounded=0;whiteSpace=wrap;html=1;" parent="1" vertex="1">
          <mxGeometry x="360" y="1310" width="120" height="60" as="geometry" />
        </mxCell>
        <mxCell id="2F_DHolSGNnzSSAKhQXL-5" value="marcas" style="rounded=0;whiteSpace=wrap;html=1;" parent="1" vertex="1">
          <mxGeometry x="1160" y="979" width="120" height="60" as="geometry" />
        </mxCell>
        <mxCell id="2F_DHolSGNnzSSAKhQXL-6" value="categorias" style="rounded=0;whiteSpace=wrap;html=1;" parent="1" vertex="1">
          <mxGeometry x="1750" y="1010" width="120" height="60" as="geometry" />
        </mxCell>
        <mxCell id="2F_DHolSGNnzSSAKhQXL-7" value="administradores" style="rounded=0;whiteSpace=wrap;html=1;" parent="1" vertex="1">
          <mxGeometry x="-149" y="210" width="120" height="60" as="geometry" />
        </mxCell>
        <mxCell id="2F_DHolSGNnzSSAKhQXL-8" value="permisos" style="rounded=0;whiteSpace=wrap;html=1;" parent="1" vertex="1">
          <mxGeometry x="830.5" y="210" width="120" height="60" as="geometry" />
        </mxCell>
        <mxCell id="2F_DHolSGNnzSSAKhQXL-9" value="clientes" style="rounded=0;whiteSpace=wrap;html=1;" parent="1" vertex="1">
          <mxGeometry x="-519" y="1081.5" width="120" height="60" as="geometry" />
        </mxCell>
        <mxCell id="2F_DHolSGNnzSSAKhQXL-10" value="id_admin" style="ellipse;whiteSpace=wrap;html=1;fontStyle=4;fillColor=#e1d5e7;strokeColor=#9673a6;" parent="1" vertex="1">
          <mxGeometry x="-149" y="400" width="120" height="80" as="geometry" />
        </mxCell>
        <mxCell id="2F_DHolSGNnzSSAKhQXL-12" value="apellido_admin" style="ellipse;whiteSpace=wrap;html=1;" parent="1" vertex="1">
          <mxGeometry x="-343" y="389" width="120" height="80" as="geometry" />
        </mxCell>
        <mxCell id="2F_DHolSGNnzSSAKhQXL-13" value="correo_admin" style="ellipse;whiteSpace=wrap;html=1;" parent="1" vertex="1">
          <mxGeometry x="38" y="389" width="120" height="80" as="geometry" />
        </mxCell>
        <mxCell id="2F_DHolSGNnzSSAKhQXL-14" value="alias_admin" style="ellipse;whiteSpace=wrap;html=1;" parent="1" vertex="1">
          <mxGeometry x="-243" y="460.5" width="120" height="80" as="geometry" />
        </mxCell>
        <mxCell id="2F_DHolSGNnzSSAKhQXL-15" value="clave_admin" style="ellipse;whiteSpace=wrap;html=1;" parent="1" vertex="1">
          <mxGeometry x="-40" y="461.5" width="120" height="80" as="geometry" />
        </mxCell>
        <mxCell id="2F_DHolSGNnzSSAKhQXL-16" value="fecha_registro_admin" style="ellipse;whiteSpace=wrap;html=1;" parent="1" vertex="1">
          <mxGeometry x="-425" y="460" width="120" height="80" as="geometry" />
        </mxCell>
        <mxCell id="2F_DHolSGNnzSSAKhQXL-17" value="imagen_administrador" style="ellipse;whiteSpace=wrap;html=1;" parent="1" vertex="1">
          <mxGeometry x="130" y="461.5" width="120" height="80" as="geometry" />
        </mxCell>
        <mxCell id="2F_DHolSGNnzSSAKhQXL-25" value="id_cliente" style="ellipse;whiteSpace=wrap;html=1;" parent="1" vertex="1">
          <mxGeometry x="-1017" y="1323.5" width="120" height="80" as="geometry" />
        </mxCell>
        <mxCell id="2F_DHolSGNnzSSAKhQXL-26" value="nombre_cliente" style="ellipse;whiteSpace=wrap;html=1;" parent="1" vertex="1">
          <mxGeometry x="-847" y="1321.5" width="120" height="80" as="geometry" />
        </mxCell>
        <mxCell id="2F_DHolSGNnzSSAKhQXL-27" value="apellido_cliente" style="ellipse;whiteSpace=wrap;html=1;" parent="1" vertex="1">
          <mxGeometry x="-628" y="1323.5" width="120" height="80" as="geometry" />
        </mxCell>
        <mxCell id="2F_DHolSGNnzSSAKhQXL-28" value="dui_cliente" style="ellipse;whiteSpace=wrap;html=1;" parent="1" vertex="1">
          <mxGeometry x="-417" y="1323.5" width="120" height="80" as="geometry" />
        </mxCell>
        <mxCell id="2F_DHolSGNnzSSAKhQXL-29" value="correo_cliente" style="ellipse;whiteSpace=wrap;html=1;" parent="1" vertex="1">
          <mxGeometry x="-17" y="1324.5" width="120" height="80" as="geometry" />
        </mxCell>
        <mxCell id="2F_DHolSGNnzSSAKhQXL-30" value="telefono_cliente" style="ellipse;whiteSpace=wrap;html=1;" parent="1" vertex="1">
          <mxGeometry x="-1207" y="1321.5" width="120" height="80" as="geometry" />
        </mxCell>
        <mxCell id="2F_DHolSGNnzSSAKhQXL-31" value="nacimiento_cliente" style="ellipse;whiteSpace=wrap;html=1;" parent="1" vertex="1">
          <mxGeometry x="-204" y="1322.5" width="120" height="80" as="geometry" />
        </mxCell>
        <mxCell id="2F_DHolSGNnzSSAKhQXL-32" value="direccion_cliente" style="ellipse;whiteSpace=wrap;html=1;" parent="1" vertex="1">
          <mxGeometry x="-1117" y="1431.5" width="120" height="80" as="geometry" />
        </mxCell>
        <mxCell id="2F_DHolSGNnzSSAKhQXL-33" value="clave_cliente" style="ellipse;whiteSpace=wrap;html=1;" parent="1" vertex="1">
          <mxGeometry x="-937" y="1441.5" width="120" height="80" as="geometry" />
        </mxCell>
        <mxCell id="2F_DHolSGNnzSSAKhQXL-34" value="estado_cliente" style="ellipse;whiteSpace=wrap;html=1;" parent="1" vertex="1">
          <mxGeometry x="-732" y="1461.5" width="120" height="80" as="geometry" />
        </mxCell>
        <mxCell id="2F_DHolSGNnzSSAKhQXL-35" value="fecha_registro_cliente" style="ellipse;whiteSpace=wrap;html=1;" parent="1" vertex="1">
          <mxGeometry x="-517" y="1451.5" width="130" height="80" as="geometry" />
        </mxCell>
        <mxCell id="2F_DHolSGNnzSSAKhQXL-36" value="imagen_cliente" style="ellipse;whiteSpace=wrap;html=1;" parent="1" vertex="1">
          <mxGeometry x="-307" y="1441.5" width="120" height="80" as="geometry" />
        </mxCell>
        <mxCell id="2F_DHolSGNnzSSAKhQXL-37" value="Tiene" style="rhombus;whiteSpace=wrap;html=1;" parent="1" vertex="1">
          <mxGeometry x="204" y="200" width="80" height="80" as="geometry" />
        </mxCell>
        <mxCell id="2F_DHolSGNnzSSAKhQXL-52" value="nombre_permiso" style="ellipse;whiteSpace=wrap;html=1;" parent="1" vertex="1">
          <mxGeometry x="1287" y="391" width="120" height="80" as="geometry" />
        </mxCell>
        <mxCell id="2F_DHolSGNnzSSAKhQXL-53" value="eliminar_usuario" style="ellipse;whiteSpace=wrap;html=1;" parent="1" vertex="1">
          <mxGeometry x="1074" y="392" width="120" height="80" as="geometry" />
        </mxCell>
        <mxCell id="2F_DHolSGNnzSSAKhQXL-54" value="agregar_actualizar&amp;nbsp;&lt;br&gt;_Producto" style="ellipse;whiteSpace=wrap;html=1;" parent="1" vertex="1">
          <mxGeometry x="1182" y="512" width="120" height="80" as="geometry" />
        </mxCell>
        <mxCell id="2F_DHolSGNnzSSAKhQXL-55" value="agregar_actualizar&lt;br&gt;_Usuario" style="ellipse;whiteSpace=wrap;html=1;" parent="1" vertex="1">
          <mxGeometry x="374" y="501" width="120" height="80" as="geometry" />
        </mxCell>
        <mxCell id="2F_DHolSGNnzSSAKhQXL-56" value="eliminar_producto" style="ellipse;whiteSpace=wrap;html=1;" parent="1" vertex="1">
          <mxGeometry x="972" y="520" width="120" height="80" as="geometry" />
        </mxCell>
        <mxCell id="2F_DHolSGNnzSSAKhQXL-57" value="borrar_comentario" style="ellipse;whiteSpace=wrap;html=1;" parent="1" vertex="1">
          <mxGeometry x="471" y="392" width="120" height="80" as="geometry" />
        </mxCell>
        <mxCell id="2F_DHolSGNnzSSAKhQXL-58" value="Agregar_actualizar&lt;br&gt;_categoria" style="ellipse;whiteSpace=wrap;html=1;" parent="1" vertex="1">
          <mxGeometry x="753" y="531" width="120" height="80" as="geometry" />
        </mxCell>
        <mxCell id="2F_DHolSGNnzSSAKhQXL-59" value="eliminar_categoria" style="ellipse;whiteSpace=wrap;html=1;" parent="1" vertex="1">
          <mxGeometry x="552" y="512" width="120" height="80" as="geometry" />
        </mxCell>
        <mxCell id="b3NYXewxobcBwOrp7OXC-1" value="gestionar_cupon" style="ellipse;whiteSpace=wrap;html=1;" parent="1" vertex="1">
          <mxGeometry x="643" y="391" width="120" height="80" as="geometry" />
        </mxCell>
        <mxCell id="b3NYXewxobcBwOrp7OXC-3" value="nombre" style="ellipse;whiteSpace=wrap;html=1;" parent="1" vertex="1">
          <mxGeometry x="2050" y="945" width="120" height="80" as="geometry" />
        </mxCell>
        <mxCell id="b3NYXewxobcBwOrp7OXC-4" value="descripcion" style="ellipse;whiteSpace=wrap;html=1;" parent="1" vertex="1">
          <mxGeometry x="2050" y="1055" width="120" height="80" as="geometry" />
        </mxCell>
        <mxCell id="b3NYXewxobcBwOrp7OXC-5" value="imagen" style="ellipse;whiteSpace=wrap;html=1;" parent="1" vertex="1">
          <mxGeometry x="2050" y="1165" width="120" height="80" as="geometry" />
        </mxCell>
        <mxCell id="b3NYXewxobcBwOrp7OXC-9" value="nombre_marcas" style="ellipse;whiteSpace=wrap;html=1;" parent="1" vertex="1">
          <mxGeometry x="1040" y="799" width="120" height="80" as="geometry" />
        </mxCell>
        <mxCell id="b3NYXewxobcBwOrp7OXC-10" value="imagen" style="ellipse;whiteSpace=wrap;html=1;" parent="1" vertex="1">
          <mxGeometry x="1160" y="799" width="120" height="80" as="geometry" />
        </mxCell>
        <mxCell id="b3NYXewxobcBwOrp7OXC-13" value="nombre_producto" style="ellipse;whiteSpace=wrap;html=1;" parent="1" vertex="1">
          <mxGeometry x="878" y="1511.5" width="120" height="80" as="geometry" />
        </mxCell>
        <mxCell id="b3NYXewxobcBwOrp7OXC-14" value="descripcion_producto" style="ellipse;whiteSpace=wrap;html=1;" parent="1" vertex="1">
          <mxGeometry x="1076" y="1511.5" width="120" height="80" as="geometry" />
        </mxCell>
        <mxCell id="b3NYXewxobcBwOrp7OXC-15" value="precio_producto" style="ellipse;whiteSpace=wrap;html=1;" parent="1" vertex="1">
          <mxGeometry x="1248" y="1511.5" width="120" height="80" as="geometry" />
        </mxCell>
        <mxCell id="b3NYXewxobcBwOrp7OXC-16" value="imagen_producto" style="ellipse;whiteSpace=wrap;html=1;" parent="1" vertex="1">
          <mxGeometry x="1463" y="1513.5" width="120" height="80" as="geometry" />
        </mxCell>
        <mxCell id="b3NYXewxobcBwOrp7OXC-17" value="estado_producto" style="ellipse;whiteSpace=wrap;html=1;" parent="1" vertex="1">
          <mxGeometry x="978" y="1622" width="120" height="80" as="geometry" />
        </mxCell>
        <mxCell id="b3NYXewxobcBwOrp7OXC-18" value="existencia_producto" style="ellipse;whiteSpace=wrap;html=1;" parent="1" vertex="1">
          <mxGeometry x="1157" y="1631" width="120" height="80" as="geometry" />
        </mxCell>
        <mxCell id="b3NYXewxobcBwOrp7OXC-19" value="fecha_registro_producto" style="ellipse;whiteSpace=wrap;html=1;" parent="1" vertex="1">
          <mxGeometry x="1875" y="1511.5" width="150" height="80" as="geometry" />
        </mxCell>
        <mxCell id="b3NYXewxobcBwOrp7OXC-20" value="mascota" style="ellipse;whiteSpace=wrap;html=1;" parent="1" vertex="1">
          <mxGeometry x="1576" y="1642" width="120" height="80" as="geometry" />
        </mxCell>
        <mxCell id="b3NYXewxobcBwOrp7OXC-22" value="id_marca" style="ellipse;whiteSpace=wrap;html=1;" parent="1" vertex="1">
          <mxGeometry x="1678" y="1512.5" width="120" height="80" as="geometry" />
        </mxCell>
        <mxCell id="b3NYXewxobcBwOrp7OXC-23" value="id_categoria" style="ellipse;whiteSpace=wrap;html=1;" parent="1" vertex="1">
          <mxGeometry x="1788" y="1631" width="120" height="80" as="geometry" />
        </mxCell>
        <mxCell id="b3NYXewxobcBwOrp7OXC-24" value="estado_pedido" style="ellipse;whiteSpace=wrap;html=1;" parent="1" vertex="1">
          <mxGeometry x="559" y="1677" width="120" height="80" as="geometry" />
        </mxCell>
        <mxCell id="b3NYXewxobcBwOrp7OXC-25" value="fecha_registro" style="ellipse;whiteSpace=wrap;html=1;" parent="1" vertex="1">
          <mxGeometry x="459" y="1550" width="120" height="80" as="geometry" />
        </mxCell>
        <mxCell id="b3NYXewxobcBwOrp7OXC-26" value="direccion_pedido" style="ellipse;whiteSpace=wrap;html=1;" parent="1" vertex="1">
          <mxGeometry x="165" y="1680" width="120" height="80" as="geometry" />
        </mxCell>
        <mxCell id="b3NYXewxobcBwOrp7OXC-27" value="id_cliente" style="ellipse;whiteSpace=wrap;html=1;" parent="1" vertex="1">
          <mxGeometry x="259" y="1550" width="120" height="80" as="geometry" />
        </mxCell>
        <mxCell id="b3NYXewxobcBwOrp7OXC-43" value="precio_producto" style="ellipse;whiteSpace=wrap;html=1;" parent="1" vertex="1">
          <mxGeometry x="830" y="670" width="120" height="80" as="geometry" />
        </mxCell>
        <mxCell id="b3NYXewxobcBwOrp7OXC-44" value="id_producto" style="ellipse;whiteSpace=wrap;html=1;" parent="1" vertex="1">
          <mxGeometry x="771" y="762" width="120" height="80" as="geometry" />
        </mxCell>
        <mxCell id="b3NYXewxobcBwOrp7OXC-45" value="id_pedido" style="ellipse;whiteSpace=wrap;html=1;" parent="1" vertex="1">
          <mxGeometry x="950" y="670" width="120" height="80" as="geometry" />
        </mxCell>
        <mxCell id="b3NYXewxobcBwOrp7OXC-46" value="cantidad_producto" style="ellipse;whiteSpace=wrap;html=1;" parent="1" vertex="1">
          <mxGeometry x="891" y="762" width="120" height="80" as="geometry" />
        </mxCell>
        <mxCell id="b3NYXewxobcBwOrp7OXC-61" value="cupon_oferta" style="rounded=0;whiteSpace=wrap;html=1;" parent="1" vertex="1">
          <mxGeometry x="-889" y="801.5" width="120" height="60" as="geometry" />
        </mxCell>
        <mxCell id="b3NYXewxobcBwOrp7OXC-63" value="codigo" style="ellipse;whiteSpace=wrap;html=1;" parent="1" vertex="1">
          <mxGeometry x="-1004" y="604" width="120" height="80" as="geometry" />
        </mxCell>
        <mxCell id="b3NYXewxobcBwOrp7OXC-64" value="porcentaje" style="ellipse;whiteSpace=wrap;html=1;" parent="1" vertex="1">
          <mxGeometry x="-779" y="599" width="120" height="80" as="geometry" />
        </mxCell>
        <mxCell id="b3NYXewxobcBwOrp7OXC-65" value="estado" style="ellipse;whiteSpace=wrap;html=1;" parent="1" vertex="1">
          <mxGeometry x="-1119" y="524" width="120" height="80" as="geometry" />
        </mxCell>
        <mxCell id="b3NYXewxobcBwOrp7OXC-66" value="fecha_ingreso" style="ellipse;whiteSpace=wrap;html=1;" parent="1" vertex="1">
          <mxGeometry x="-669" y="519" width="120" height="80" as="geometry" />
        </mxCell>
        <mxCell id="b3NYXewxobcBwOrp7OXC-67" value="id_cupon" style="ellipse;whiteSpace=wrap;html=1;" parent="1" vertex="1">
          <mxGeometry x="-186" y="789" width="120" height="80" as="geometry" />
        </mxCell>
        <mxCell id="b3NYXewxobcBwOrp7OXC-68" value="id_cliente" style="ellipse;whiteSpace=wrap;html=1;" parent="1" vertex="1">
          <mxGeometry x="-176" y="879" width="120" height="80" as="geometry" />
        </mxCell>
        <mxCell id="b3NYXewxobcBwOrp7OXC-76" value="pertenece" style="rhombus;whiteSpace=wrap;html=1;" parent="1" vertex="1">
          <mxGeometry x="1430" y="1000" width="80" height="80" as="geometry" />
        </mxCell>
        <mxCell id="b3NYXewxobcBwOrp7OXC-80" value="pertenece" style="rhombus;whiteSpace=wrap;html=1;" parent="1" vertex="1">
          <mxGeometry x="1250" y="1110" width="80" height="80" as="geometry" />
        </mxCell>
        <mxCell id="b3NYXewxobcBwOrp7OXC-108" value="Realiza" style="rhombus;whiteSpace=wrap;html=1;" parent="1" vertex="1">
          <mxGeometry x="-74" y="1071.5" width="80" height="80" as="geometry" />
        </mxCell>
        <mxCell id="b3NYXewxobcBwOrp7OXC-111" value="cupones_utilizados" style="rhombus;whiteSpace=wrap;html=1;" parent="1" vertex="1">
          <mxGeometry x="-519" y="774.25" width="120" height="115" as="geometry" />
        </mxCell>
        <mxCell id="b3NYXewxobcBwOrp7OXC-120" value="N" style="text;html=1;strokeColor=none;fillColor=none;align=center;verticalAlign=middle;whiteSpace=wrap;rounded=0;" parent="1" vertex="1">
          <mxGeometry x="1420" y="1070" width="60" height="30" as="geometry" />
        </mxCell>
        <mxCell id="b3NYXewxobcBwOrp7OXC-121" value="1" style="text;html=1;strokeColor=none;fillColor=none;align=center;verticalAlign=middle;whiteSpace=wrap;rounded=0;" parent="1" vertex="1">
          <mxGeometry x="1500" y="1040" width="60" height="30" as="geometry" />
        </mxCell>
        <mxCell id="b3NYXewxobcBwOrp7OXC-125" value="M" style="text;html=1;strokeColor=none;fillColor=none;align=center;verticalAlign=middle;whiteSpace=wrap;rounded=0;" parent="1" vertex="1">
          <mxGeometry x="1310" y="1170" width="60" height="30" as="geometry" />
        </mxCell>
        <mxCell id="b3NYXewxobcBwOrp7OXC-127" value="1" style="text;html=1;strokeColor=none;fillColor=none;align=center;verticalAlign=middle;whiteSpace=wrap;rounded=0;" parent="1" vertex="1">
          <mxGeometry x="1230" y="1080" width="60" height="30" as="geometry" />
        </mxCell>
        <mxCell id="4FlmDiTLjiJ03aOqT-Md-1" value="" style="endArrow=none;html=1;rounded=0;entryX=0;entryY=0.618;entryDx=0;entryDy=0;entryPerimeter=0;" parent="1" target="b3NYXewxobcBwOrp7OXC-3" edge="1">
          <mxGeometry width="50" height="50" relative="1" as="geometry">
            <mxPoint x="1960" y="994" as="sourcePoint" />
            <mxPoint x="1950" y="935" as="targetPoint" />
          </mxGeometry>
        </mxCell>
        <mxCell id="4FlmDiTLjiJ03aOqT-Md-4" value="" style="endArrow=none;html=1;rounded=0;exitX=-0.026;exitY=0.431;exitDx=0;exitDy=0;exitPerimeter=0;" parent="1" source="b3NYXewxobcBwOrp7OXC-4" edge="1">
          <mxGeometry width="50" height="50" relative="1" as="geometry">
            <mxPoint x="1870" y="1085" as="sourcePoint" />
            <mxPoint x="1960" y="1089" as="targetPoint" />
          </mxGeometry>
        </mxCell>
        <mxCell id="4FlmDiTLjiJ03aOqT-Md-5" value="" style="endArrow=none;html=1;rounded=0;exitX=0.018;exitY=0.281;exitDx=0;exitDy=0;exitPerimeter=0;" parent="1" source="b3NYXewxobcBwOrp7OXC-5" edge="1">
          <mxGeometry width="50" height="50" relative="1" as="geometry">
            <mxPoint x="1800" y="1095" as="sourcePoint" />
            <mxPoint x="1960" y="1187" as="targetPoint" />
          </mxGeometry>
        </mxCell>
        <mxCell id="zYeqs-Y39ctY3acqWYT0-11" value="" style="endArrow=none;html=1;rounded=0;exitX=1;exitY=1;exitDx=0;exitDy=0;" parent="1" edge="1">
          <mxGeometry width="50" height="50" relative="1" as="geometry">
            <mxPoint x="1750" y="1040" as="sourcePoint" />
            <mxPoint x="1510" y="1040" as="targetPoint" />
          </mxGeometry>
        </mxCell>
        <mxCell id="zYeqs-Y39ctY3acqWYT0-12" value="" style="endArrow=none;html=1;rounded=0;exitX=0.5;exitY=0;exitDx=0;exitDy=0;entryX=1;entryY=1;entryDx=0;entryDy=0;" parent="1" source="2F_DHolSGNnzSSAKhQXL-1" edge="1">
          <mxGeometry width="50" height="50" relative="1" as="geometry">
            <mxPoint x="1690" y="1180" as="sourcePoint" />
            <mxPoint x="1470" y="1080" as="targetPoint" />
          </mxGeometry>
        </mxCell>
        <mxCell id="zYeqs-Y39ctY3acqWYT0-13" value="" style="endArrow=none;html=1;rounded=0;entryX=1;entryY=0.5;entryDx=0;entryDy=0;exitX=0;exitY=0;exitDx=0;exitDy=0;" parent="1" source="2F_DHolSGNnzSSAKhQXL-1" target="b3NYXewxobcBwOrp7OXC-80" edge="1">
          <mxGeometry width="50" height="50" relative="1" as="geometry">
            <mxPoint x="1410" y="1260" as="sourcePoint" />
            <mxPoint x="1370" y="1150" as="targetPoint" />
            <Array as="points">
              <mxPoint x="1410" y="1150" />
            </Array>
          </mxGeometry>
        </mxCell>
        <mxCell id="zYeqs-Y39ctY3acqWYT0-14" value="" style="endArrow=none;html=1;rounded=0;exitX=0;exitY=0.25;exitDx=0;exitDy=0;" parent="1" edge="1">
          <mxGeometry width="50" height="50" relative="1" as="geometry">
            <mxPoint x="1410" y="1297" as="sourcePoint" />
            <mxPoint x="890" y="1300" as="targetPoint" />
          </mxGeometry>
        </mxCell>
        <mxCell id="zYeqs-Y39ctY3acqWYT0-15" value="" style="endArrow=none;html=1;rounded=0;entryX=0.5;entryY=0;entryDx=0;entryDy=0;exitX=0.5;exitY=1;exitDx=0;exitDy=0;" parent="1" source="2F_DHolSGNnzSSAKhQXL-5" target="b3NYXewxobcBwOrp7OXC-80" edge="1">
          <mxGeometry width="50" height="50" relative="1" as="geometry">
            <mxPoint x="1210" y="1140" as="sourcePoint" />
            <mxPoint x="1260" y="1090" as="targetPoint" />
            <Array as="points">
              <mxPoint x="1220" y="1110" />
            </Array>
          </mxGeometry>
        </mxCell>
        <mxCell id="zYeqs-Y39ctY3acqWYT0-16" value="" style="endArrow=none;html=1;rounded=0;entryX=0.5;entryY=1;entryDx=0;entryDy=0;" parent="1" target="b3NYXewxobcBwOrp7OXC-9" edge="1">
          <mxGeometry width="50" height="50" relative="1" as="geometry">
            <mxPoint x="1100" y="939" as="sourcePoint" />
            <mxPoint x="1150" y="879" as="targetPoint" />
          </mxGeometry>
        </mxCell>
        <mxCell id="zYeqs-Y39ctY3acqWYT0-17" value="" style="endArrow=none;html=1;rounded=0;entryX=0.5;entryY=1;entryDx=0;entryDy=0;" parent="1" target="b3NYXewxobcBwOrp7OXC-10" edge="1">
          <mxGeometry width="50" height="50" relative="1" as="geometry">
            <mxPoint x="1220" y="939" as="sourcePoint" />
            <mxPoint x="1290" y="879" as="targetPoint" />
          </mxGeometry>
        </mxCell>
        <mxCell id="zYeqs-Y39ctY3acqWYT0-27" value="" style="endArrow=none;html=1;rounded=0;entryX=0.5;entryY=1;entryDx=0;entryDy=0;exitX=0.5;exitY=0;exitDx=0;exitDy=0;" parent="1" source="PzAknOk3q2ynUlt_nJGI-35" edge="1">
          <mxGeometry width="50" height="50" relative="1" as="geometry">
            <mxPoint x="889.38" y="1115" as="sourcePoint" />
            <mxPoint x="889.38" y="905" as="targetPoint" />
          </mxGeometry>
        </mxCell>
        <mxCell id="zYeqs-Y39ctY3acqWYT0-29" value="" style="endArrow=none;html=1;rounded=0;entryX=0.5;entryY=1;entryDx=0;entryDy=0;exitX=1;exitY=0.5;exitDx=0;exitDy=0;" parent="1" source="2F_DHolSGNnzSSAKhQXL-2" target="PzAknOk3q2ynUlt_nJGI-35" edge="1">
          <mxGeometry width="50" height="50" relative="1" as="geometry">
            <mxPoint x="820" y="1330" as="sourcePoint" />
            <mxPoint x="860" y="1280" as="targetPoint" />
            <Array as="points">
              <mxPoint x="890" y="1340" />
            </Array>
          </mxGeometry>
        </mxCell>
        <mxCell id="zYeqs-Y39ctY3acqWYT0-34" value="" style="endArrow=none;html=1;rounded=0;entryX=0;entryY=0.5;entryDx=0;entryDy=0;exitX=1;exitY=0.5;exitDx=0;exitDy=0;" parent="1" source="b3NYXewxobcBwOrp7OXC-108" target="2F_DHolSGNnzSSAKhQXL-2" edge="1">
          <mxGeometry width="50" height="50" relative="1" as="geometry">
            <mxPoint x="460" y="1120" as="sourcePoint" />
            <mxPoint x="510" y="1070" as="targetPoint" />
            <Array as="points">
              <mxPoint x="360" y="1112" />
            </Array>
          </mxGeometry>
        </mxCell>
        <mxCell id="zYeqs-Y39ctY3acqWYT0-35" value="" style="endArrow=none;html=1;rounded=0;entryX=0;entryY=0.5;entryDx=0;entryDy=0;exitX=1;exitY=0.5;exitDx=0;exitDy=0;" parent="1" source="2F_DHolSGNnzSSAKhQXL-9" target="b3NYXewxobcBwOrp7OXC-108" edge="1">
          <mxGeometry width="50" height="50" relative="1" as="geometry">
            <mxPoint x="-390" y="1112" as="sourcePoint" />
            <mxPoint x="-359" y="1061.5" as="targetPoint" />
          </mxGeometry>
        </mxCell>
        <mxCell id="yYhjXtK-f7d1NUz5v1KG-14" value="" style="endArrow=none;html=1;rounded=0;labelBackgroundColor=default;strokeColor=default;align=center;verticalAlign=middle;fontFamily=Helvetica;fontSize=11;fontColor=default;shape=connector;exitX=0.5;exitY=0;exitDx=0;exitDy=0;" parent="1" source="2F_DHolSGNnzSSAKhQXL-9" target="b3NYXewxobcBwOrp7OXC-111" edge="1">
          <mxGeometry width="50" height="50" relative="1" as="geometry">
            <mxPoint x="-459" y="1031.5" as="sourcePoint" />
            <mxPoint x="-409" y="981.5" as="targetPoint" />
          </mxGeometry>
        </mxCell>
        <mxCell id="yYhjXtK-f7d1NUz5v1KG-15" value="" style="endArrow=none;html=1;rounded=0;labelBackgroundColor=default;strokeColor=default;align=center;verticalAlign=middle;fontFamily=Helvetica;fontSize=11;fontColor=default;shape=connector;entryX=0;entryY=0.5;entryDx=0;entryDy=0;" parent="1" target="b3NYXewxobcBwOrp7OXC-67" edge="1">
          <mxGeometry width="50" height="50" relative="1" as="geometry">
            <mxPoint x="-299" y="829.5" as="sourcePoint" />
            <mxPoint x="-279" y="891.75" as="targetPoint" />
          </mxGeometry>
        </mxCell>
        <mxCell id="yYhjXtK-f7d1NUz5v1KG-16" value="" style="endArrow=none;html=1;rounded=0;labelBackgroundColor=default;strokeColor=default;align=center;verticalAlign=middle;fontFamily=Helvetica;fontSize=11;fontColor=default;shape=connector;entryX=0;entryY=0.5;entryDx=0;entryDy=0;" parent="1" target="b3NYXewxobcBwOrp7OXC-68" edge="1">
          <mxGeometry width="50" height="50" relative="1" as="geometry">
            <mxPoint x="-299" y="919.5" as="sourcePoint" />
            <mxPoint x="-319" y="911.75" as="targetPoint" />
          </mxGeometry>
        </mxCell>
        <mxCell id="yYhjXtK-f7d1NUz5v1KG-17" value="" style="endArrow=none;html=1;rounded=0;labelBackgroundColor=default;strokeColor=default;align=center;verticalAlign=middle;fontFamily=Helvetica;fontSize=11;fontColor=default;shape=connector;entryX=0;entryY=0.5;entryDx=0;entryDy=0;exitX=1;exitY=0.5;exitDx=0;exitDy=0;" parent="1" source="b3NYXewxobcBwOrp7OXC-61" target="b3NYXewxobcBwOrp7OXC-111" edge="1">
          <mxGeometry width="50" height="50" relative="1" as="geometry">
            <mxPoint x="-679" y="901.5" as="sourcePoint" />
            <mxPoint x="-629" y="851.5" as="targetPoint" />
          </mxGeometry>
        </mxCell>
        <mxCell id="yYhjXtK-f7d1NUz5v1KG-39" value="M" style="text;html=1;strokeColor=none;fillColor=none;align=center;verticalAlign=middle;whiteSpace=wrap;rounded=0;fontFamily=Helvetica;fontSize=11;fontColor=default;" parent="1" vertex="1">
          <mxGeometry x="274" y="200" width="60" height="30" as="geometry" />
        </mxCell>
        <mxCell id="yYhjXtK-f7d1NUz5v1KG-41" value="1" style="text;html=1;strokeColor=none;fillColor=none;align=center;verticalAlign=middle;whiteSpace=wrap;rounded=0;fontFamily=Helvetica;fontSize=11;fontColor=default;" parent="1" vertex="1">
          <mxGeometry x="-29" y="205" width="60" height="30" as="geometry" />
        </mxCell>
        <mxCell id="yYhjXtK-f7d1NUz5v1KG-43" value="M" style="text;html=1;strokeColor=none;fillColor=none;align=center;verticalAlign=middle;whiteSpace=wrap;rounded=0;fontFamily=Helvetica;fontSize=11;fontColor=default;" parent="1" vertex="1">
          <mxGeometry x="160" y="237.5" width="60" height="40" as="geometry" />
        </mxCell>
        <mxCell id="yYhjXtK-f7d1NUz5v1KG-44" value="1" style="text;html=1;strokeColor=none;fillColor=none;align=center;verticalAlign=middle;whiteSpace=wrap;rounded=0;fontFamily=Helvetica;fontSize=11;fontColor=default;" parent="1" vertex="1">
          <mxGeometry x="-469" y="1041.5" width="60" height="30" as="geometry" />
        </mxCell>
        <mxCell id="yYhjXtK-f7d1NUz5v1KG-45" value="M" style="text;html=1;strokeColor=none;fillColor=none;align=center;verticalAlign=middle;whiteSpace=wrap;rounded=0;fontFamily=Helvetica;fontSize=11;fontColor=default;" parent="1" vertex="1">
          <mxGeometry x="-559" y="779.5" width="60" height="30" as="geometry" />
        </mxCell>
        <mxCell id="yYhjXtK-f7d1NUz5v1KG-50" value="M" style="text;html=1;strokeColor=none;fillColor=none;align=center;verticalAlign=middle;whiteSpace=wrap;rounded=0;fontFamily=Helvetica;fontSize=11;fontColor=default;" parent="1" vertex="1">
          <mxGeometry x="-459" y="881.75" width="60" height="30" as="geometry" />
        </mxCell>
        <mxCell id="yYhjXtK-f7d1NUz5v1KG-51" value="1" style="text;html=1;strokeColor=none;fillColor=none;align=center;verticalAlign=middle;whiteSpace=wrap;rounded=0;fontFamily=Helvetica;fontSize=11;fontColor=default;" parent="1" vertex="1">
          <mxGeometry x="-759" y="831.5" width="60" height="30" as="geometry" />
        </mxCell>
        <mxCell id="yYhjXtK-f7d1NUz5v1KG-52" value="1" style="text;html=1;strokeColor=none;fillColor=none;align=center;verticalAlign=middle;whiteSpace=wrap;rounded=0;fontFamily=Helvetica;fontSize=11;fontColor=default;" parent="1" vertex="1">
          <mxGeometry x="-134" y="1081.5" width="60" height="30" as="geometry" />
        </mxCell>
        <mxCell id="yYhjXtK-f7d1NUz5v1KG-55" value="N" style="text;html=1;strokeColor=none;fillColor=none;align=center;verticalAlign=middle;whiteSpace=wrap;rounded=0;fontFamily=Helvetica;fontSize=11;fontColor=default;" parent="1" vertex="1">
          <mxGeometry x="1" y="1111.5" width="60" height="30" as="geometry" />
        </mxCell>
        <mxCell id="yYhjXtK-f7d1NUz5v1KG-56" value="&lt;u&gt;id_cupon&lt;/u&gt;" style="ellipse;whiteSpace=wrap;html=1;fontFamily=Helvetica;fontSize=11;fillColor=#e1d5e7;strokeColor=#9673a6;" parent="1" vertex="1">
          <mxGeometry x="-889" y="511.5" width="120" height="80" as="geometry" />
        </mxCell>
        <mxCell id="yYhjXtK-f7d1NUz5v1KG-58" value="&lt;u&gt;id_utlizado&lt;/u&gt;" style="ellipse;whiteSpace=wrap;html=1;fontFamily=Helvetica;fontSize=11;fillColor=#e1d5e7;strokeColor=#9673a6;" parent="1" vertex="1">
          <mxGeometry x="-176" y="696.5" width="120" height="80" as="geometry" />
        </mxCell>
        <mxCell id="yYhjXtK-f7d1NUz5v1KG-59" value="" style="endArrow=none;html=1;rounded=0;labelBackgroundColor=default;strokeColor=default;align=center;verticalAlign=middle;fontFamily=Helvetica;fontSize=11;fontColor=default;shape=connector;entryX=0;entryY=0.5;entryDx=0;entryDy=0;" parent="1" target="yYhjXtK-f7d1NUz5v1KG-58" edge="1">
          <mxGeometry width="50" height="50" relative="1" as="geometry">
            <mxPoint x="-299" y="736.5" as="sourcePoint" />
            <mxPoint x="-309" y="751.75" as="targetPoint" />
          </mxGeometry>
        </mxCell>
        <mxCell id="yYhjXtK-f7d1NUz5v1KG-60" value="&lt;u&gt;id_Cliente&lt;/u&gt;" style="ellipse;whiteSpace=wrap;html=1;fontFamily=Helvetica;fontSize=11;fillColor=#e1d5e7;strokeColor=#9673a6;" parent="1" vertex="1">
          <mxGeometry x="-107" y="1451.5" width="120" height="80" as="geometry" />
        </mxCell>
        <mxCell id="yYhjXtK-f7d1NUz5v1KG-62" value="&lt;u&gt;id_permiso&lt;/u&gt;" style="ellipse;whiteSpace=wrap;html=1;fontFamily=Helvetica;fontSize=11;fillColor=#e1d5e7;strokeColor=#9673a6;" parent="1" vertex="1">
          <mxGeometry x="859" y="393" width="120" height="80" as="geometry" />
        </mxCell>
        <mxCell id="yYhjXtK-f7d1NUz5v1KG-67" value="&lt;u&gt;id_detalle_Pedido&lt;/u&gt;" style="ellipse;whiteSpace=wrap;html=1;fontFamily=Helvetica;fontSize=11;fillColor=#e1d5e7;strokeColor=#9673a6;" parent="1" vertex="1">
          <mxGeometry x="710" y="670" width="120" height="80" as="geometry" />
        </mxCell>
        <mxCell id="yYhjXtK-f7d1NUz5v1KG-69" value="&lt;u&gt;id_Pedido&lt;/u&gt;" style="ellipse;whiteSpace=wrap;html=1;fontFamily=Helvetica;fontSize=11;fillColor=#e1d5e7;strokeColor=#9673a6;" parent="1" vertex="1">
          <mxGeometry x="359" y="1680" width="120" height="80" as="geometry" />
        </mxCell>
        <mxCell id="yYhjXtK-f7d1NUz5v1KG-72" style="edgeStyle=none;shape=connector;rounded=0;orthogonalLoop=1;jettySize=auto;html=1;exitX=0.5;exitY=1;exitDx=0;exitDy=0;labelBackgroundColor=default;strokeColor=default;align=center;verticalAlign=middle;fontFamily=Helvetica;fontSize=11;fontColor=default;endArrow=none;" parent="1" edge="1">
          <mxGeometry relative="1" as="geometry">
            <mxPoint x="1340" y="879" as="sourcePoint" />
            <mxPoint x="1340" y="939" as="targetPoint" />
          </mxGeometry>
        </mxCell>
        <mxCell id="yYhjXtK-f7d1NUz5v1KG-71" value="&lt;u&gt;id_marca&lt;/u&gt;" style="ellipse;whiteSpace=wrap;html=1;fontFamily=Helvetica;fontSize=11;fillColor=#e1d5e7;strokeColor=#9673a6;" parent="1" vertex="1">
          <mxGeometry x="1280" y="799" width="120" height="80" as="geometry" />
        </mxCell>
        <mxCell id="yYhjXtK-f7d1NUz5v1KG-73" value="&lt;u&gt;id_producto&lt;/u&gt;" style="ellipse;whiteSpace=wrap;html=1;fontFamily=Helvetica;fontSize=11;fillColor=#e1d5e7;strokeColor=#9673a6;" parent="1" vertex="1">
          <mxGeometry x="1358" y="1650" width="120" height="80" as="geometry" />
        </mxCell>
        <mxCell id="yYhjXtK-f7d1NUz5v1KG-79" style="edgeStyle=none;shape=connector;rounded=0;orthogonalLoop=1;jettySize=auto;html=1;exitX=0;exitY=0.5;exitDx=0;exitDy=0;labelBackgroundColor=default;strokeColor=default;align=center;verticalAlign=middle;fontFamily=Helvetica;fontSize=11;fontColor=default;endArrow=none;" parent="1" source="yYhjXtK-f7d1NUz5v1KG-78" edge="1">
          <mxGeometry relative="1" as="geometry">
            <mxPoint x="1960" y="873" as="targetPoint" />
          </mxGeometry>
        </mxCell>
        <mxCell id="yYhjXtK-f7d1NUz5v1KG-78" value="&lt;u&gt;id_categoria&lt;/u&gt;" style="ellipse;whiteSpace=wrap;html=1;fontFamily=Helvetica;fontSize=11;fillColor=#e1d5e7;strokeColor=#9673a6;" parent="1" vertex="1">
          <mxGeometry x="2050" y="833" width="120" height="80" as="geometry" />
        </mxCell>
        <mxCell id="yYhjXtK-f7d1NUz5v1KG-42" value="1" style="text;html=1;strokeColor=none;fillColor=none;align=center;verticalAlign=middle;whiteSpace=wrap;rounded=0;fontFamily=Helvetica;fontSize=11;fontColor=default;" parent="1" vertex="1">
          <mxGeometry x="759.5" y="240" width="60" height="30" as="geometry" />
        </mxCell>
        <mxCell id="PzAknOk3q2ynUlt_nJGI-1" value="" style="endArrow=none;html=1;rounded=0;entryX=0.5;entryY=1;entryDx=0;entryDy=0;" parent="1" target="2F_DHolSGNnzSSAKhQXL-9" edge="1">
          <mxGeometry width="50" height="50" relative="1" as="geometry">
            <mxPoint x="-459" y="1262" as="sourcePoint" />
            <mxPoint x="-309" y="1281.5" as="targetPoint" />
          </mxGeometry>
        </mxCell>
        <mxCell id="PzAknOk3q2ynUlt_nJGI-2" value="" style="endArrow=none;html=1;rounded=0;" parent="1" edge="1">
          <mxGeometry width="50" height="50" relative="1" as="geometry">
            <mxPoint x="-1158" y="1261.5" as="sourcePoint" />
            <mxPoint x="42" y="1261.5" as="targetPoint" />
          </mxGeometry>
        </mxCell>
        <mxCell id="PzAknOk3q2ynUlt_nJGI-3" value="" style="endArrow=none;html=1;rounded=0;" parent="1" edge="1">
          <mxGeometry width="50" height="50" relative="1" as="geometry">
            <mxPoint x="-788" y="1321.5" as="sourcePoint" />
            <mxPoint x="-788" y="1261.5" as="targetPoint" />
          </mxGeometry>
        </mxCell>
        <mxCell id="PzAknOk3q2ynUlt_nJGI-4" value="" style="endArrow=none;html=1;rounded=0;" parent="1" edge="1">
          <mxGeometry width="50" height="50" relative="1" as="geometry">
            <mxPoint x="-678" y="1461.5" as="sourcePoint" />
            <mxPoint x="-680" y="1261.5" as="targetPoint" />
          </mxGeometry>
        </mxCell>
        <mxCell id="PzAknOk3q2ynUlt_nJGI-5" value="" style="endArrow=none;html=1;rounded=0;" parent="1" edge="1">
          <mxGeometry width="50" height="50" relative="1" as="geometry">
            <mxPoint x="-573" y="1323.5" as="sourcePoint" />
            <mxPoint x="-573" y="1263.5" as="targetPoint" />
          </mxGeometry>
        </mxCell>
        <mxCell id="PzAknOk3q2ynUlt_nJGI-6" value="" style="endArrow=none;html=1;rounded=0;" parent="1" edge="1">
          <mxGeometry width="50" height="50" relative="1" as="geometry">
            <mxPoint x="-459" y="1451.5" as="sourcePoint" />
            <mxPoint x="-459" y="1261.5" as="targetPoint" />
          </mxGeometry>
        </mxCell>
        <mxCell id="PzAknOk3q2ynUlt_nJGI-7" value="" style="endArrow=none;html=1;rounded=0;" parent="1" edge="1">
          <mxGeometry width="50" height="50" relative="1" as="geometry">
            <mxPoint x="-358" y="1321.5" as="sourcePoint" />
            <mxPoint x="-358" y="1261.5" as="targetPoint" />
          </mxGeometry>
        </mxCell>
        <mxCell id="PzAknOk3q2ynUlt_nJGI-8" value="" style="endArrow=none;html=1;rounded=0;" parent="1" edge="1">
          <mxGeometry width="50" height="50" relative="1" as="geometry">
            <mxPoint x="-248" y="1441.5" as="sourcePoint" />
            <mxPoint x="-248.45" y="1261.5" as="targetPoint" />
          </mxGeometry>
        </mxCell>
        <mxCell id="PzAknOk3q2ynUlt_nJGI-9" value="" style="endArrow=none;html=1;rounded=0;" parent="1" edge="1">
          <mxGeometry width="50" height="50" relative="1" as="geometry">
            <mxPoint x="-148" y="1321.5" as="sourcePoint" />
            <mxPoint x="-148" y="1261.5" as="targetPoint" />
          </mxGeometry>
        </mxCell>
        <mxCell id="PzAknOk3q2ynUlt_nJGI-10" value="" style="endArrow=none;html=1;rounded=0;" parent="1" edge="1">
          <mxGeometry width="50" height="50" relative="1" as="geometry">
            <mxPoint x="-48" y="1451.5" as="sourcePoint" />
            <mxPoint x="-48" y="1261.5" as="targetPoint" />
          </mxGeometry>
        </mxCell>
        <mxCell id="PzAknOk3q2ynUlt_nJGI-11" value="" style="endArrow=none;html=1;rounded=0;" parent="1" edge="1">
          <mxGeometry width="50" height="50" relative="1" as="geometry">
            <mxPoint x="-959.11" y="1321.5" as="sourcePoint" />
            <mxPoint x="-959.11" y="1261.5" as="targetPoint" />
          </mxGeometry>
        </mxCell>
        <mxCell id="PzAknOk3q2ynUlt_nJGI-12" value="" style="endArrow=none;html=1;rounded=0;" parent="1" edge="1">
          <mxGeometry width="50" height="50" relative="1" as="geometry">
            <mxPoint x="42" y="1323.5" as="sourcePoint" />
            <mxPoint x="42" y="1263.5" as="targetPoint" />
          </mxGeometry>
        </mxCell>
        <mxCell id="PzAknOk3q2ynUlt_nJGI-13" value="" style="endArrow=none;html=1;rounded=0;" parent="1" edge="1">
          <mxGeometry width="50" height="50" relative="1" as="geometry">
            <mxPoint x="-878" y="1441.5" as="sourcePoint" />
            <mxPoint x="-878" y="1262.5" as="targetPoint" />
          </mxGeometry>
        </mxCell>
        <mxCell id="PzAknOk3q2ynUlt_nJGI-14" value="" style="endArrow=none;html=1;rounded=0;" parent="1" edge="1">
          <mxGeometry width="50" height="50" relative="1" as="geometry">
            <mxPoint x="-1158" y="1321.5" as="sourcePoint" />
            <mxPoint x="-1158" y="1261.5" as="targetPoint" />
          </mxGeometry>
        </mxCell>
        <mxCell id="PzAknOk3q2ynUlt_nJGI-15" value="" style="endArrow=none;html=1;rounded=0;" parent="1" edge="1">
          <mxGeometry width="50" height="50" relative="1" as="geometry">
            <mxPoint x="-1058" y="1431.5" as="sourcePoint" />
            <mxPoint x="-1058" y="1262.5" as="targetPoint" />
          </mxGeometry>
        </mxCell>
        <mxCell id="PzAknOk3q2ynUlt_nJGI-16" value="" style="endArrow=none;html=1;rounded=0;" parent="1" edge="1">
          <mxGeometry width="50" height="50" relative="1" as="geometry">
            <mxPoint x="-299" y="916.5" as="sourcePoint" />
            <mxPoint x="-299" y="736.5" as="targetPoint" />
          </mxGeometry>
        </mxCell>
        <mxCell id="PzAknOk3q2ynUlt_nJGI-17" value="" style="endArrow=none;html=1;rounded=0;exitX=1;exitY=0.5;exitDx=0;exitDy=0;" parent="1" edge="1">
          <mxGeometry width="50" height="50" relative="1" as="geometry">
            <mxPoint x="-399" y="829.75" as="sourcePoint" />
            <mxPoint x="-299" y="829.5" as="targetPoint" />
          </mxGeometry>
        </mxCell>
        <mxCell id="PzAknOk3q2ynUlt_nJGI-18" value="" style="endArrow=none;html=1;rounded=0;" parent="1" edge="1">
          <mxGeometry width="50" height="50" relative="1" as="geometry">
            <mxPoint x="-1059" y="741.5" as="sourcePoint" />
            <mxPoint x="-609" y="741.5" as="targetPoint" />
          </mxGeometry>
        </mxCell>
        <mxCell id="PzAknOk3q2ynUlt_nJGI-19" value="" style="endArrow=none;html=1;rounded=0;exitX=0.5;exitY=0;exitDx=0;exitDy=0;" parent="1" source="b3NYXewxobcBwOrp7OXC-61" edge="1">
          <mxGeometry width="50" height="50" relative="1" as="geometry">
            <mxPoint x="-849" y="791.5" as="sourcePoint" />
            <mxPoint x="-829" y="741.5" as="targetPoint" />
          </mxGeometry>
        </mxCell>
        <mxCell id="PzAknOk3q2ynUlt_nJGI-20" value="" style="endArrow=none;html=1;rounded=0;entryX=0.5;entryY=1;entryDx=0;entryDy=0;" parent="1" target="b3NYXewxobcBwOrp7OXC-65" edge="1">
          <mxGeometry width="50" height="50" relative="1" as="geometry">
            <mxPoint x="-1059" y="741.5" as="sourcePoint" />
            <mxPoint x="-1059" y="611.5" as="targetPoint" />
          </mxGeometry>
        </mxCell>
        <mxCell id="PzAknOk3q2ynUlt_nJGI-21" value="" style="endArrow=none;html=1;rounded=0;" parent="1" target="b3NYXewxobcBwOrp7OXC-66" edge="1">
          <mxGeometry width="50" height="50" relative="1" as="geometry">
            <mxPoint x="-609" y="741.5" as="sourcePoint" />
            <mxPoint x="-509" y="621.5" as="targetPoint" />
          </mxGeometry>
        </mxCell>
        <mxCell id="PzAknOk3q2ynUlt_nJGI-22" value="" style="endArrow=none;html=1;rounded=0;entryX=0.5;entryY=1;entryDx=0;entryDy=0;" parent="1" target="b3NYXewxobcBwOrp7OXC-63" edge="1">
          <mxGeometry width="50" height="50" relative="1" as="geometry">
            <mxPoint x="-944" y="741.5" as="sourcePoint" />
            <mxPoint x="-899" y="691.5" as="targetPoint" />
          </mxGeometry>
        </mxCell>
        <mxCell id="PzAknOk3q2ynUlt_nJGI-23" value="" style="endArrow=none;html=1;rounded=0;entryX=0.5;entryY=1;entryDx=0;entryDy=0;" parent="1" target="b3NYXewxobcBwOrp7OXC-64" edge="1">
          <mxGeometry width="50" height="50" relative="1" as="geometry">
            <mxPoint x="-719" y="741.5" as="sourcePoint" />
            <mxPoint x="-659" y="621.5" as="targetPoint" />
          </mxGeometry>
        </mxCell>
        <mxCell id="PzAknOk3q2ynUlt_nJGI-24" value="" style="endArrow=none;html=1;rounded=0;entryX=0.5;entryY=1;entryDx=0;entryDy=0;" parent="1" target="yYhjXtK-f7d1NUz5v1KG-56" edge="1">
          <mxGeometry width="50" height="50" relative="1" as="geometry">
            <mxPoint x="-829" y="741.5" as="sourcePoint" />
            <mxPoint x="-809" y="631.5" as="targetPoint" />
          </mxGeometry>
        </mxCell>
        <mxCell id="PzAknOk3q2ynUlt_nJGI-25" value="" style="endArrow=none;html=1;rounded=0;entryX=0.5;entryY=1;entryDx=0;entryDy=0;" parent="1" edge="1">
          <mxGeometry width="50" height="50" relative="1" as="geometry">
            <mxPoint x="419" y="1440" as="sourcePoint" />
            <mxPoint x="419" y="1370" as="targetPoint" />
          </mxGeometry>
        </mxCell>
        <mxCell id="PzAknOk3q2ynUlt_nJGI-26" value="" style="endArrow=none;html=1;rounded=0;" parent="1" edge="1">
          <mxGeometry width="50" height="50" relative="1" as="geometry">
            <mxPoint x="220" y="1441.5" as="sourcePoint" />
            <mxPoint x="620" y="1441.5" as="targetPoint" />
          </mxGeometry>
        </mxCell>
        <mxCell id="PzAknOk3q2ynUlt_nJGI-27" value="" style="endArrow=none;html=1;rounded=0;" parent="1" edge="1">
          <mxGeometry width="50" height="50" relative="1" as="geometry">
            <mxPoint x="219" y="1680" as="sourcePoint" />
            <mxPoint x="219" y="1440" as="targetPoint" />
          </mxGeometry>
        </mxCell>
        <mxCell id="PzAknOk3q2ynUlt_nJGI-28" value="" style="endArrow=none;html=1;rounded=0;" parent="1" edge="1">
          <mxGeometry width="50" height="50" relative="1" as="geometry">
            <mxPoint x="619" y="1680" as="sourcePoint" />
            <mxPoint x="619" y="1443" as="targetPoint" />
          </mxGeometry>
        </mxCell>
        <mxCell id="PzAknOk3q2ynUlt_nJGI-29" value="" style="endArrow=none;html=1;rounded=0;" parent="1" source="yYhjXtK-f7d1NUz5v1KG-69" edge="1">
          <mxGeometry width="50" height="50" relative="1" as="geometry">
            <mxPoint x="389" y="1540" as="sourcePoint" />
            <mxPoint x="419" y="1440" as="targetPoint" />
          </mxGeometry>
        </mxCell>
        <mxCell id="PzAknOk3q2ynUlt_nJGI-30" value="" style="endArrow=none;html=1;rounded=0;exitX=0.5;exitY=0;exitDx=0;exitDy=0;" parent="1" source="b3NYXewxobcBwOrp7OXC-27" edge="1">
          <mxGeometry width="50" height="50" relative="1" as="geometry">
            <mxPoint x="309" y="1550" as="sourcePoint" />
            <mxPoint x="319" y="1440" as="targetPoint" />
          </mxGeometry>
        </mxCell>
        <mxCell id="PzAknOk3q2ynUlt_nJGI-31" value="" style="endArrow=none;html=1;rounded=0;exitX=0.5;exitY=0;exitDx=0;exitDy=0;" parent="1" edge="1">
          <mxGeometry width="50" height="50" relative="1" as="geometry">
            <mxPoint x="519" y="1550" as="sourcePoint" />
            <mxPoint x="519" y="1440" as="targetPoint" />
          </mxGeometry>
        </mxCell>
        <mxCell id="PzAknOk3q2ynUlt_nJGI-33" value="" style="endArrow=none;html=1;rounded=0;" parent="1" edge="1">
          <mxGeometry width="50" height="50" relative="1" as="geometry">
            <mxPoint x="1219.74" y="979" as="sourcePoint" />
            <mxPoint x="1220" y="939" as="targetPoint" />
          </mxGeometry>
        </mxCell>
        <mxCell id="PzAknOk3q2ynUlt_nJGI-34" value="" style="endArrow=none;html=1;rounded=0;" parent="1" edge="1">
          <mxGeometry width="50" height="50" relative="1" as="geometry">
            <mxPoint x="1100" y="939" as="sourcePoint" />
            <mxPoint x="1340" y="939" as="targetPoint" />
          </mxGeometry>
        </mxCell>
        <mxCell id="PzAknOk3q2ynUlt_nJGI-35" value="detalles_pedidos" style="rhombus;whiteSpace=wrap;html=1;" parent="1" vertex="1">
          <mxGeometry x="840" y="1110" width="100" height="90" as="geometry" />
        </mxCell>
        <mxCell id="PzAknOk3q2ynUlt_nJGI-36" value="" style="endArrow=none;html=1;rounded=0;" parent="1" edge="1">
          <mxGeometry width="50" height="50" relative="1" as="geometry">
            <mxPoint x="767.5" y="903.57" as="sourcePoint" />
            <mxPoint x="1012.5" y="903.57" as="targetPoint" />
          </mxGeometry>
        </mxCell>
        <mxCell id="PzAknOk3q2ynUlt_nJGI-37" value="" style="endArrow=none;html=1;rounded=0;entryX=0.5;entryY=1;entryDx=0;entryDy=0;" parent="1" target="yYhjXtK-f7d1NUz5v1KG-67" edge="1">
          <mxGeometry width="50" height="50" relative="1" as="geometry">
            <mxPoint x="768" y="904" as="sourcePoint" />
            <mxPoint x="768" y="844" as="targetPoint" />
          </mxGeometry>
        </mxCell>
        <mxCell id="PzAknOk3q2ynUlt_nJGI-38" value="" style="endArrow=none;html=1;rounded=0;entryX=0.5;entryY=1;entryDx=0;entryDy=0;" parent="1" edge="1">
          <mxGeometry width="50" height="50" relative="1" as="geometry">
            <mxPoint x="830" y="904" as="sourcePoint" />
            <mxPoint x="830" y="844" as="targetPoint" />
          </mxGeometry>
        </mxCell>
        <mxCell id="PzAknOk3q2ynUlt_nJGI-39" value="" style="endArrow=none;html=1;rounded=0;" parent="1" edge="1">
          <mxGeometry width="50" height="50" relative="1" as="geometry">
            <mxPoint x="889.64" y="904" as="sourcePoint" />
            <mxPoint x="890" y="750" as="targetPoint" />
          </mxGeometry>
        </mxCell>
        <mxCell id="PzAknOk3q2ynUlt_nJGI-40" value="" style="endArrow=none;html=1;rounded=0;entryX=0.5;entryY=1;entryDx=0;entryDy=0;" parent="1" edge="1">
          <mxGeometry width="50" height="50" relative="1" as="geometry">
            <mxPoint x="950" y="903" as="sourcePoint" />
            <mxPoint x="950" y="843" as="targetPoint" />
          </mxGeometry>
        </mxCell>
        <mxCell id="PzAknOk3q2ynUlt_nJGI-41" value="" style="endArrow=none;html=1;rounded=0;" parent="1" edge="1">
          <mxGeometry width="50" height="50" relative="1" as="geometry">
            <mxPoint x="1012" y="904" as="sourcePoint" />
            <mxPoint x="1010" y="750" as="targetPoint" />
          </mxGeometry>
        </mxCell>
        <mxCell id="PzAknOk3q2ynUlt_nJGI-42" value="1" style="text;html=1;strokeColor=none;fillColor=none;align=center;verticalAlign=middle;whiteSpace=wrap;rounded=0;" parent="1" vertex="1">
          <mxGeometry x="585" y="1310" width="60" height="30" as="geometry" />
        </mxCell>
        <mxCell id="PzAknOk3q2ynUlt_nJGI-43" value="M" style="text;html=1;strokeColor=none;fillColor=none;align=center;verticalAlign=middle;whiteSpace=wrap;rounded=0;" parent="1" vertex="1">
          <mxGeometry x="830" y="1200" width="60" height="30" as="geometry" />
        </mxCell>
        <mxCell id="PzAknOk3q2ynUlt_nJGI-44" value="N" style="text;html=1;strokeColor=none;fillColor=none;align=center;verticalAlign=middle;whiteSpace=wrap;rounded=0;" parent="1" vertex="1">
          <mxGeometry x="890" y="1200" width="60" height="30" as="geometry" />
        </mxCell>
        <mxCell id="PzAknOk3q2ynUlt_nJGI-45" value="1" style="text;html=1;strokeColor=none;fillColor=none;align=center;verticalAlign=middle;whiteSpace=wrap;rounded=0;" parent="1" vertex="1">
          <mxGeometry x="1310" y="1265" width="60" height="30" as="geometry" />
        </mxCell>
        <mxCell id="PzAknOk3q2ynUlt_nJGI-59" value="" style="endArrow=none;html=1;rounded=0;" parent="1" edge="1">
          <mxGeometry width="50" height="50" relative="1" as="geometry">
            <mxPoint x="937" y="1451.5" as="sourcePoint" />
            <mxPoint x="1948" y="1450" as="targetPoint" />
          </mxGeometry>
        </mxCell>
        <mxCell id="PzAknOk3q2ynUlt_nJGI-60" value="" style="endArrow=none;html=1;rounded=0;" parent="1" edge="1">
          <mxGeometry width="50" height="50" relative="1" as="geometry">
            <mxPoint x="1307" y="1511.5" as="sourcePoint" />
            <mxPoint x="1307" y="1451.5" as="targetPoint" />
          </mxGeometry>
        </mxCell>
        <mxCell id="PzAknOk3q2ynUlt_nJGI-61" value="" style="endArrow=none;html=1;rounded=0;" parent="1" edge="1">
          <mxGeometry width="50" height="50" relative="1" as="geometry">
            <mxPoint x="1417" y="1651.5" as="sourcePoint" />
            <mxPoint x="1415" y="1451.5" as="targetPoint" />
          </mxGeometry>
        </mxCell>
        <mxCell id="PzAknOk3q2ynUlt_nJGI-62" value="" style="endArrow=none;html=1;rounded=0;" parent="1" edge="1">
          <mxGeometry width="50" height="50" relative="1" as="geometry">
            <mxPoint x="1522" y="1513.5" as="sourcePoint" />
            <mxPoint x="1522" y="1453.5" as="targetPoint" />
          </mxGeometry>
        </mxCell>
        <mxCell id="PzAknOk3q2ynUlt_nJGI-63" value="" style="endArrow=none;html=1;rounded=0;" parent="1" edge="1">
          <mxGeometry width="50" height="50" relative="1" as="geometry">
            <mxPoint x="1636" y="1641.5" as="sourcePoint" />
            <mxPoint x="1636" y="1451.5" as="targetPoint" />
          </mxGeometry>
        </mxCell>
        <mxCell id="PzAknOk3q2ynUlt_nJGI-64" value="" style="endArrow=none;html=1;rounded=0;" parent="1" edge="1">
          <mxGeometry width="50" height="50" relative="1" as="geometry">
            <mxPoint x="1737" y="1511.5" as="sourcePoint" />
            <mxPoint x="1737" y="1451.5" as="targetPoint" />
          </mxGeometry>
        </mxCell>
        <mxCell id="PzAknOk3q2ynUlt_nJGI-65" value="" style="endArrow=none;html=1;rounded=0;" parent="1" edge="1">
          <mxGeometry width="50" height="50" relative="1" as="geometry">
            <mxPoint x="1847" y="1631.5" as="sourcePoint" />
            <mxPoint x="1846.55" y="1451.5" as="targetPoint" />
          </mxGeometry>
        </mxCell>
        <mxCell id="PzAknOk3q2ynUlt_nJGI-66" value="" style="endArrow=none;html=1;rounded=0;exitX=0.487;exitY=0.001;exitDx=0;exitDy=0;exitPerimeter=0;" parent="1" source="b3NYXewxobcBwOrp7OXC-19" edge="1">
          <mxGeometry width="50" height="50" relative="1" as="geometry">
            <mxPoint x="1947" y="1511.5" as="sourcePoint" />
            <mxPoint x="1948" y="1450" as="targetPoint" />
          </mxGeometry>
        </mxCell>
        <mxCell id="PzAknOk3q2ynUlt_nJGI-68" value="" style="endArrow=none;html=1;rounded=0;" parent="1" edge="1">
          <mxGeometry width="50" height="50" relative="1" as="geometry">
            <mxPoint x="1135.8899999999999" y="1511.5" as="sourcePoint" />
            <mxPoint x="1135.8899999999999" y="1451.5" as="targetPoint" />
          </mxGeometry>
        </mxCell>
        <mxCell id="PzAknOk3q2ynUlt_nJGI-70" value="" style="endArrow=none;html=1;rounded=0;" parent="1" edge="1">
          <mxGeometry width="50" height="50" relative="1" as="geometry">
            <mxPoint x="1217" y="1631.5" as="sourcePoint" />
            <mxPoint x="1217" y="1452.5" as="targetPoint" />
          </mxGeometry>
        </mxCell>
        <mxCell id="PzAknOk3q2ynUlt_nJGI-71" value="" style="endArrow=none;html=1;rounded=0;" parent="1" edge="1">
          <mxGeometry width="50" height="50" relative="1" as="geometry">
            <mxPoint x="937" y="1511.5" as="sourcePoint" />
            <mxPoint x="937" y="1451.5" as="targetPoint" />
          </mxGeometry>
        </mxCell>
        <mxCell id="PzAknOk3q2ynUlt_nJGI-72" value="" style="endArrow=none;html=1;rounded=0;" parent="1" edge="1">
          <mxGeometry width="50" height="50" relative="1" as="geometry">
            <mxPoint x="1037" y="1621.5" as="sourcePoint" />
            <mxPoint x="1037" y="1452.5" as="targetPoint" />
          </mxGeometry>
        </mxCell>
        <mxCell id="PzAknOk3q2ynUlt_nJGI-73" value="" style="endArrow=none;html=1;rounded=0;entryX=1;entryY=1;entryDx=0;entryDy=0;" parent="1" edge="1">
          <mxGeometry width="50" height="50" relative="1" as="geometry">
            <mxPoint x="1470" y="1450" as="sourcePoint" />
            <mxPoint x="1469.33" y="1330" as="targetPoint" />
          </mxGeometry>
        </mxCell>
        <mxCell id="PzAknOk3q2ynUlt_nJGI-74" value="" style="endArrow=none;html=1;rounded=0;exitX=1;exitY=1;exitDx=0;exitDy=0;" parent="1" edge="1">
          <mxGeometry width="50" height="50" relative="1" as="geometry">
            <mxPoint x="1960" y="872.62" as="sourcePoint" />
            <mxPoint x="1960" y="1188" as="targetPoint" />
          </mxGeometry>
        </mxCell>
        <mxCell id="PzAknOk3q2ynUlt_nJGI-75" value="" style="endArrow=none;html=1;rounded=0;" parent="1" edge="1">
          <mxGeometry width="50" height="50" relative="1" as="geometry">
            <mxPoint x="1870" y="1040" as="sourcePoint" />
            <mxPoint x="1960" y="1040" as="targetPoint" />
          </mxGeometry>
        </mxCell>
        <mxCell id="PzAknOk3q2ynUlt_nJGI-76" value="" style="endArrow=none;html=1;rounded=0;entryX=0;entryY=0.5;entryDx=0;entryDy=0;exitX=1;exitY=0.5;exitDx=0;exitDy=0;" parent="1" source="2F_DHolSGNnzSSAKhQXL-7" target="2F_DHolSGNnzSSAKhQXL-37" edge="1">
          <mxGeometry width="50" height="50" relative="1" as="geometry">
            <mxPoint x="155" y="370" as="sourcePoint" />
            <mxPoint x="205" y="320" as="targetPoint" />
          </mxGeometry>
        </mxCell>
        <mxCell id="PzAknOk3q2ynUlt_nJGI-77" value="" style="endArrow=none;html=1;rounded=0;exitX=1;exitY=0.5;exitDx=0;exitDy=0;entryX=0;entryY=0.5;entryDx=0;entryDy=0;" parent="1" source="2F_DHolSGNnzSSAKhQXL-37" target="2F_DHolSGNnzSSAKhQXL-8" edge="1">
          <mxGeometry width="50" height="50" relative="1" as="geometry">
            <mxPoint x="335" y="320" as="sourcePoint" />
            <mxPoint x="385" y="270" as="targetPoint" />
          </mxGeometry>
        </mxCell>
        <mxCell id="PzAknOk3q2ynUlt_nJGI-78" value="" style="endArrow=none;html=1;rounded=0;exitX=0.5;exitY=0;exitDx=0;exitDy=0;" parent="1" source="2F_DHolSGNnzSSAKhQXL-37" edge="1">
          <mxGeometry width="50" height="50" relative="1" as="geometry">
            <mxPoint x="235" y="190" as="sourcePoint" />
            <mxPoint x="245" y="-20" as="targetPoint" />
          </mxGeometry>
        </mxCell>
        <mxCell id="PzAknOk3q2ynUlt_nJGI-79" value="" style="endArrow=none;html=1;rounded=0;" parent="1" edge="1">
          <mxGeometry width="50" height="50" relative="1" as="geometry">
            <mxPoint x="165" y="140" as="sourcePoint" />
            <mxPoint x="335" y="140" as="targetPoint" />
          </mxGeometry>
        </mxCell>
        <mxCell id="PzAknOk3q2ynUlt_nJGI-80" value="" style="endArrow=none;html=1;rounded=0;" parent="1" edge="1">
          <mxGeometry width="50" height="50" relative="1" as="geometry">
            <mxPoint x="165" y="140" as="sourcePoint" />
            <mxPoint x="165" y="80" as="targetPoint" />
          </mxGeometry>
        </mxCell>
        <mxCell id="PzAknOk3q2ynUlt_nJGI-81" value="" style="endArrow=none;html=1;rounded=0;" parent="1" edge="1">
          <mxGeometry width="50" height="50" relative="1" as="geometry">
            <mxPoint x="334" y="140" as="sourcePoint" />
            <mxPoint x="334" y="80" as="targetPoint" />
          </mxGeometry>
        </mxCell>
        <mxCell id="PzAknOk3q2ynUlt_nJGI-82" value="id_admin" style="ellipse;whiteSpace=wrap;html=1;" parent="1" vertex="1">
          <mxGeometry x="274" width="120" height="80" as="geometry" />
        </mxCell>
        <mxCell id="PzAknOk3q2ynUlt_nJGI-83" value="&lt;u&gt;id_asignacion_permiso&lt;/u&gt;" style="ellipse;whiteSpace=wrap;html=1;fillColor=#e1d5e7;strokeColor=#9673a6;" parent="1" vertex="1">
          <mxGeometry x="184" y="-100" width="130" height="80" as="geometry" />
        </mxCell>
        <mxCell id="PzAknOk3q2ynUlt_nJGI-84" value="id_permiso" style="ellipse;whiteSpace=wrap;html=1;" parent="1" vertex="1">
          <mxGeometry x="105" width="120" height="80" as="geometry" />
        </mxCell>
        <mxCell id="PzAknOk3q2ynUlt_nJGI-85" value="" style="endArrow=none;html=1;rounded=0;entryX=0.5;entryY=1;entryDx=0;entryDy=0;" parent="1" target="2F_DHolSGNnzSSAKhQXL-7" edge="1">
          <mxGeometry width="50" height="50" relative="1" as="geometry">
            <mxPoint x="-89" y="330" as="sourcePoint" />
            <mxPoint x="-45" y="300" as="targetPoint" />
          </mxGeometry>
        </mxCell>
        <mxCell id="PzAknOk3q2ynUlt_nJGI-86" value="" style="endArrow=none;html=1;rounded=0;entryX=0.5;entryY=1;entryDx=0;entryDy=0;" parent="1" target="2F_DHolSGNnzSSAKhQXL-8" edge="1">
          <mxGeometry width="50" height="50" relative="1" as="geometry">
            <mxPoint x="890.5" y="330" as="sourcePoint" />
            <mxPoint x="940.5" y="310" as="targetPoint" />
          </mxGeometry>
        </mxCell>
        <mxCell id="PzAknOk3q2ynUlt_nJGI-87" value="" style="endArrow=none;html=1;rounded=0;" parent="1" edge="1">
          <mxGeometry width="50" height="50" relative="1" as="geometry">
            <mxPoint x="-369" y="330" as="sourcePoint" />
            <mxPoint x="191" y="330" as="targetPoint" />
          </mxGeometry>
        </mxCell>
        <mxCell id="PzAknOk3q2ynUlt_nJGI-88" value="" style="endArrow=none;html=1;rounded=0;" parent="1" edge="1">
          <mxGeometry width="50" height="50" relative="1" as="geometry">
            <mxPoint x="-369" y="460" as="sourcePoint" />
            <mxPoint x="-369" y="330" as="targetPoint" />
          </mxGeometry>
        </mxCell>
        <mxCell id="PzAknOk3q2ynUlt_nJGI-89" value="" style="endArrow=none;html=1;rounded=0;" parent="1" edge="1">
          <mxGeometry width="50" height="50" relative="1" as="geometry">
            <mxPoint x="190.57000000000005" y="460.5" as="sourcePoint" />
            <mxPoint x="190.57000000000005" y="330.5" as="targetPoint" />
          </mxGeometry>
        </mxCell>
        <mxCell id="PzAknOk3q2ynUlt_nJGI-90" value="" style="endArrow=none;html=1;rounded=0;" parent="1" edge="1">
          <mxGeometry width="50" height="50" relative="1" as="geometry">
            <mxPoint x="-183" y="460" as="sourcePoint" />
            <mxPoint x="-183" y="330" as="targetPoint" />
          </mxGeometry>
        </mxCell>
        <mxCell id="PzAknOk3q2ynUlt_nJGI-91" value="" style="endArrow=none;html=1;rounded=0;" parent="1" edge="1">
          <mxGeometry width="50" height="50" relative="1" as="geometry">
            <mxPoint x="-89" y="400" as="sourcePoint" />
            <mxPoint x="-89.43" y="331.5" as="targetPoint" />
          </mxGeometry>
        </mxCell>
        <mxCell id="PzAknOk3q2ynUlt_nJGI-92" value="" style="endArrow=none;html=1;rounded=0;" parent="1" edge="1">
          <mxGeometry width="50" height="50" relative="1" as="geometry">
            <mxPoint x="19.289999999999992" y="461.5" as="sourcePoint" />
            <mxPoint x="19.289999999999992" y="331.5" as="targetPoint" />
          </mxGeometry>
        </mxCell>
        <mxCell id="PzAknOk3q2ynUlt_nJGI-93" value="" style="endArrow=none;html=1;rounded=0;" parent="1" edge="1">
          <mxGeometry width="50" height="50" relative="1" as="geometry">
            <mxPoint x="-283.14" y="389" as="sourcePoint" />
            <mxPoint x="-283.14" y="330.5" as="targetPoint" />
          </mxGeometry>
        </mxCell>
        <mxCell id="PzAknOk3q2ynUlt_nJGI-94" value="" style="endArrow=none;html=1;rounded=0;" parent="1" edge="1">
          <mxGeometry width="50" height="50" relative="1" as="geometry">
            <mxPoint x="99" y="390" as="sourcePoint" />
            <mxPoint x="99" y="331.5" as="targetPoint" />
          </mxGeometry>
        </mxCell>
        <mxCell id="PzAknOk3q2ynUlt_nJGI-108" value="" style="endArrow=none;html=1;rounded=0;" parent="1" edge="1">
          <mxGeometry width="50" height="50" relative="1" as="geometry">
            <mxPoint x="430" y="330" as="sourcePoint" />
            <mxPoint x="1340" y="330" as="targetPoint" />
          </mxGeometry>
        </mxCell>
        <mxCell id="PzAknOk3q2ynUlt_nJGI-109" value="" style="endArrow=none;html=1;rounded=0;" parent="1" edge="1">
          <mxGeometry width="50" height="50" relative="1" as="geometry">
            <mxPoint x="703" y="390" as="sourcePoint" />
            <mxPoint x="703" y="330" as="targetPoint" />
          </mxGeometry>
        </mxCell>
        <mxCell id="PzAknOk3q2ynUlt_nJGI-110" value="" style="endArrow=none;html=1;rounded=0;" parent="1" edge="1">
          <mxGeometry width="50" height="50" relative="1" as="geometry">
            <mxPoint x="813" y="530" as="sourcePoint" />
            <mxPoint x="811" y="330" as="targetPoint" />
          </mxGeometry>
        </mxCell>
        <mxCell id="PzAknOk3q2ynUlt_nJGI-111" value="" style="endArrow=none;html=1;rounded=0;" parent="1" edge="1">
          <mxGeometry width="50" height="50" relative="1" as="geometry">
            <mxPoint x="918" y="392" as="sourcePoint" />
            <mxPoint x="918" y="332" as="targetPoint" />
          </mxGeometry>
        </mxCell>
        <mxCell id="PzAknOk3q2ynUlt_nJGI-112" value="" style="endArrow=none;html=1;rounded=0;" parent="1" edge="1">
          <mxGeometry width="50" height="50" relative="1" as="geometry">
            <mxPoint x="1032" y="520" as="sourcePoint" />
            <mxPoint x="1032" y="330" as="targetPoint" />
          </mxGeometry>
        </mxCell>
        <mxCell id="PzAknOk3q2ynUlt_nJGI-113" value="" style="endArrow=none;html=1;rounded=0;" parent="1" edge="1">
          <mxGeometry width="50" height="50" relative="1" as="geometry">
            <mxPoint x="1133" y="390" as="sourcePoint" />
            <mxPoint x="1133" y="330" as="targetPoint" />
          </mxGeometry>
        </mxCell>
        <mxCell id="PzAknOk3q2ynUlt_nJGI-114" value="" style="endArrow=none;html=1;rounded=0;" parent="1" edge="1">
          <mxGeometry width="50" height="50" relative="1" as="geometry">
            <mxPoint x="1243" y="510" as="sourcePoint" />
            <mxPoint x="1242.55" y="330" as="targetPoint" />
          </mxGeometry>
        </mxCell>
        <mxCell id="PzAknOk3q2ynUlt_nJGI-115" value="" style="endArrow=none;html=1;rounded=0;" parent="1" edge="1">
          <mxGeometry width="50" height="50" relative="1" as="geometry">
            <mxPoint x="1343" y="390" as="sourcePoint" />
            <mxPoint x="1343" y="330" as="targetPoint" />
          </mxGeometry>
        </mxCell>
        <mxCell id="PzAknOk3q2ynUlt_nJGI-117" value="" style="endArrow=none;html=1;rounded=0;" parent="1" edge="1">
          <mxGeometry width="50" height="50" relative="1" as="geometry">
            <mxPoint x="531.89" y="390" as="sourcePoint" />
            <mxPoint x="531.89" y="330" as="targetPoint" />
          </mxGeometry>
        </mxCell>
        <mxCell id="PzAknOk3q2ynUlt_nJGI-119" value="" style="endArrow=none;html=1;rounded=0;" parent="1" edge="1">
          <mxGeometry width="50" height="50" relative="1" as="geometry">
            <mxPoint x="613" y="510" as="sourcePoint" />
            <mxPoint x="613" y="331" as="targetPoint" />
          </mxGeometry>
        </mxCell>
        <mxCell id="PzAknOk3q2ynUlt_nJGI-121" value="" style="endArrow=none;html=1;rounded=0;" parent="1" edge="1">
          <mxGeometry width="50" height="50" relative="1" as="geometry">
            <mxPoint x="433" y="500" as="sourcePoint" />
            <mxPoint x="433" y="331" as="targetPoint" />
          </mxGeometry>
        </mxCell>
      </root>
    </mxGraphModel>
  </diagram>
</mxfile>
